# xmcd CD database file
#
# Track frame offsets:
#	150
#	17676
#	31935
#	52923
#	68857
#	86992
#	106190
#	126920
#	138528
#	156266
#	169567
#	188037
#	202418
#
# Disc length: 2965 seconds
#
# Revision: 0
# Processed by: cddbd v1.5.1PL2 Copyright (c) Steve Scherf et al.
# Submitted via: CDex 1.51
#
DISCID=b40b930d
DTITLE=Michael Buble - Michael Buble
DYEAR=1900
DGENRE=Jazz
TTITLE0=1 - Fever
TTITLE1=2 - Moondance
TTITLE2=3 - Kissing A Fool
TTITLE3=4 - For Once In My Life
TTITLE4=5 - How Can You Mend A Broken Heart
TTITLE5=6 - Summer Wind
TTITLE6=7 - Youll Never Find Another Love
TTITLE7=8 - Crazy Little Thing Called Love
TTITLE8=9 - Put Your Head On My Shoulder
TTITLE9=10 - Sway
TTITLE10=11 - The Way You Look Tonight
TTITLE11=12 - Come Fly With Me
TTITLE12=13 - Thats All
EXTD=
EXTT0=
EXTT1=
EXTT2=
EXTT3=
EXTT4=
EXTT5=
EXTT6=
EXTT7=
EXTT8=
EXTT9=
EXTT10=
EXTT11=
EXTT12=
PLAYORDER=
